<?xml version="1.0" encoding="UTF-8"?>
<svg width="259px" height="87px" viewBox="0 0 259 87" version="1.1" xmlns="http://www.w3.org/2000/svg" xmlns:xlink="http://www.w3.org/1999/xlink">
    <!-- Generator: Sketch 63.1 (92452) - https://sketch.com -->
    <title>FH_Erfurt_Logo</title>
    <desc>Created with Sketch.</desc>
    <g id="Page-1" stroke="none" stroke-width="1" fill="none" fill-rule="evenodd">
        <g id="FH_Erfurt_Logo" transform="translate(-1.000000, -1.000000)" fill="#163572" fill-rule="nonzero">
            <g id="g12" transform="translate(129.746250, 44.225700) scale(-1, 1) rotate(-180.000000) translate(-129.746250, -44.225700) translate(0.246250, 0.725700)">
                <polygon id="path478" points="190.139325 34.61475 259.007388 34.61475 259.007388 51.751 190.139325 51.751 190.139325 34.61475"></polygon>
                <polygon id="path480" points="190.139325 68.885125 259.007388 68.885125 259.007388 86.021375 190.139325 86.021375 190.139325 68.885125"></polygon>
                <polygon id="path482" points="190.139325 0.34225 259.007388 0.34225 259.007388 17.4785 190.139325 17.4785 190.139325 0.34225"></polygon>
                <polygon id="path484" points="155.70635 0.34225 172.922838 0.34225 172.922838 86.021375 155.70635 86.021375"></polygon>
                <polygon id="path488" points="138.489213 51.749875 104.056238 51.749875 104.056238 86.022375 86.8376375 86.022375 86.8376375 0.341125 104.056238 0.341125 104.056238 34.613625 138.489213 34.613625 138.489213 51.749875"></polygon>
                <polygon id="path490" points="0.7537475 68.885125 69.6218125 68.885125 69.6218125 86.021375 0.7537475 86.021375 0.7537475 68.885125"></polygon>
                <polygon id="path494" points="69.621825 34.613875 69.621825 51.750125 17.9702525 51.750125 0.753765 51.750125 0.753765 34.613875 0.753765 0.341375 17.9702525 0.341375 17.9702525 34.613875"></polygon>
            </g>
        </g>
    </g>
</svg>